<svg width="222" height="40" viewBox="0 0 220 40" fill="none" xmlns="http://www.w3.org/2000/svg">
<rect width="220" height="40" fill="black"/>
<path d="M84.5523 26.1236C84.3169 26.1236 84.1345 26.0588 84.005 25.9294C83.8873 25.7999 83.8285 25.6175 83.8285 25.3821V18.02C83.8285 17.7846 83.8873 17.6081 84.005 17.4904C84.1227 17.3609 84.2934 17.2961 84.517 17.2961C84.7407 17.2961 84.9113 17.3609 85.029 17.4904C85.1585 17.6081 85.2232 17.7846 85.2232 18.02V19.45H85.0467C85.235 18.7556 85.594 18.2201 86.1236 17.8435C86.6533 17.4668 87.3065 17.2667 88.0833 17.2432C88.2599 17.2314 88.4011 17.2726 88.507 17.3668C88.613 17.4492 88.6718 17.5963 88.6836 17.8081C88.6954 18.0082 88.6483 18.1671 88.5423 18.2848C88.4364 18.4025 88.2716 18.4731 88.048 18.4967L87.7655 18.532C86.9652 18.6026 86.3473 18.8615 85.9118 19.3088C85.4881 19.7443 85.2762 20.3446 85.2762 21.1096V25.3821C85.2762 25.6175 85.2115 25.7999 85.082 25.9294C84.9643 26.0588 84.7877 26.1236 84.5523 26.1236ZM93.9189 26.1589C93.0127 26.1589 92.23 25.9823 91.5708 25.6292C90.9235 25.2644 90.4174 24.7524 90.0525 24.0933C89.6994 23.4342 89.5229 22.6456 89.5229 21.7275C89.5229 20.833 89.6994 20.0562 90.0525 19.3971C90.4056 18.7262 90.8882 18.2024 91.5002 17.8258C92.124 17.4492 92.842 17.2608 93.6541 17.2608C94.2308 17.2608 94.7487 17.3609 95.2077 17.561C95.6668 17.7493 96.0552 18.0259 96.373 18.3908C96.7025 18.7556 96.9497 19.197 97.1145 19.7149C97.291 20.2327 97.3793 20.8154 97.3793 21.4627C97.3793 21.651 97.3263 21.7923 97.2204 21.8864C97.1145 21.9688 96.9615 22.01 96.7614 22.01H90.6175V21.0743H96.4259L96.1435 21.3038C96.1435 20.6682 96.0493 20.1327 95.861 19.6972C95.6727 19.25 95.3961 18.9086 95.0312 18.6732C94.6781 18.4378 94.2308 18.3201 93.6894 18.3201C93.0892 18.3201 92.5772 18.4614 92.1535 18.7438C91.7415 19.0146 91.4296 19.3971 91.2177 19.8914C91.0059 20.374 90.9 20.9389 90.9 21.5863V21.6922C90.9 22.775 91.1589 23.5989 91.6768 24.1639C92.2064 24.7288 92.9538 25.0113 93.9189 25.0113C94.3191 25.0113 94.7134 24.9584 95.1018 24.8524C95.502 24.7465 95.8904 24.57 96.267 24.3228C96.4318 24.2169 96.5789 24.1698 96.7084 24.1815C96.8496 24.1815 96.9615 24.2227 97.0439 24.3051C97.1262 24.3758 97.1792 24.4699 97.2027 24.5876C97.2381 24.6935 97.2263 24.8112 97.1674 24.9407C97.1204 25.0702 97.0203 25.182 96.8673 25.2762C96.4789 25.5586 96.0199 25.7764 95.4902 25.9294C94.9606 26.0824 94.4368 26.1589 93.9189 26.1589ZM102.15 26.1589C101.562 26.1589 101.032 26.0471 100.561 25.8235C100.102 25.5881 99.7373 25.2703 99.4666 24.8701C99.1959 24.4699 99.0605 24.0227 99.0605 23.5283C99.0605 22.8927 99.2194 22.3925 99.5372 22.0277C99.8667 21.6628 100.402 21.4038 101.144 21.2508C101.897 21.0978 102.921 21.0213 104.216 21.0213H105.01V21.957H104.233C103.28 21.957 102.527 22.0041 101.974 22.0983C101.432 22.1807 101.05 22.3278 100.826 22.5396C100.614 22.7515 100.508 23.0516 100.508 23.44C100.508 23.9226 100.673 24.3169 101.003 24.6229C101.344 24.9289 101.803 25.0819 102.38 25.0819C102.85 25.0819 103.262 24.9701 103.615 24.7465C103.98 24.5229 104.263 24.2169 104.463 23.8285C104.675 23.44 104.781 22.9928 104.781 22.4867V20.474C104.781 19.7443 104.634 19.2205 104.339 18.9027C104.045 18.5732 103.562 18.4084 102.892 18.4084C102.48 18.4084 102.068 18.4614 101.656 18.5673C101.244 18.6732 100.808 18.8439 100.349 19.0793C100.185 19.1617 100.043 19.1911 99.9256 19.1676C99.8079 19.1323 99.7137 19.0675 99.6431 18.9734C99.5725 18.8792 99.5313 18.7733 99.5195 18.6556C99.5078 18.5261 99.5313 18.4025 99.5902 18.2848C99.6608 18.1671 99.7667 18.073 99.9079 18.0023C100.426 17.7434 100.938 17.5551 101.444 17.4374C101.95 17.3197 102.433 17.2608 102.892 17.2608C103.633 17.2608 104.245 17.3844 104.728 17.6316C105.21 17.867 105.569 18.2319 105.805 18.7262C106.04 19.2088 106.158 19.8326 106.158 20.5976V25.3821C106.158 25.6175 106.099 25.7999 105.981 25.9294C105.875 26.0588 105.716 26.1236 105.505 26.1236C105.281 26.1236 105.11 26.0588 104.993 25.9294C104.875 25.7999 104.816 25.6175 104.816 25.3821V24.005H104.975C104.881 24.4523 104.698 24.8348 104.428 25.1526C104.169 25.4704 103.845 25.7175 103.457 25.8941C103.068 26.0706 102.633 26.1589 102.15 26.1589ZM112.448 26.1589C111.589 26.1589 110.847 25.9706 110.223 25.5939C109.599 25.2173 109.117 24.6935 108.776 24.0227C108.446 23.34 108.281 22.5514 108.281 21.6569C108.281 20.9742 108.375 20.3622 108.564 19.8208C108.752 19.2794 109.029 18.8204 109.393 18.4437C109.758 18.0553 110.194 17.7611 110.7 17.561C111.218 17.3609 111.8 17.2608 112.448 17.2608C112.871 17.2608 113.313 17.3256 113.772 17.455C114.231 17.5845 114.649 17.8081 115.025 18.1259C115.143 18.2083 115.22 18.3084 115.255 18.4261C115.29 18.5438 115.29 18.6615 115.255 18.7792C115.22 18.8851 115.161 18.9792 115.078 19.0616C114.996 19.1323 114.89 19.1735 114.761 19.1852C114.643 19.197 114.519 19.1558 114.39 19.0616C114.084 18.8262 113.772 18.6615 113.454 18.5673C113.136 18.4731 112.83 18.4261 112.536 18.4261C112.077 18.4261 111.677 18.5026 111.335 18.6556C110.994 18.7968 110.706 19.0028 110.47 19.2735C110.235 19.5442 110.053 19.8796 109.923 20.2798C109.805 20.68 109.747 21.1449 109.747 21.6746C109.747 22.6985 109.988 23.5107 110.47 24.1109C110.953 24.6994 111.641 24.9937 112.536 24.9937C112.83 24.9937 113.13 24.9466 113.436 24.8524C113.754 24.7583 114.072 24.5935 114.39 24.3581C114.519 24.2639 114.643 24.2227 114.761 24.2345C114.878 24.2463 114.978 24.2934 115.061 24.3758C115.143 24.4464 115.196 24.5405 115.22 24.6582C115.255 24.7759 115.255 24.8936 115.22 25.0113C115.184 25.1173 115.108 25.2114 114.99 25.2938C114.613 25.5998 114.201 25.8235 113.754 25.9647C113.307 26.0942 112.871 26.1589 112.448 26.1589ZM120.426 26.1589C119.755 26.1589 119.19 26.0412 118.731 25.8058C118.284 25.5586 117.948 25.2055 117.725 24.7465C117.501 24.2757 117.389 23.7049 117.389 23.034V18.532H116.206C116.006 18.532 115.853 18.4849 115.747 18.3908C115.641 18.2848 115.588 18.1436 115.588 17.967C115.588 17.7905 115.641 17.6551 115.747 17.561C115.853 17.4668 116.006 17.4197 116.206 17.4197H117.389V15.3894C117.389 15.154 117.454 14.9775 117.583 14.8598C117.713 14.7303 117.889 14.6656 118.113 14.6656C118.337 14.6656 118.507 14.7303 118.625 14.8598C118.754 14.9775 118.819 15.154 118.819 15.3894V17.4197H121.044C121.244 17.4197 121.397 17.4668 121.503 17.561C121.609 17.6551 121.662 17.7905 121.662 17.967C121.662 18.1436 121.609 18.2848 121.503 18.3908C121.397 18.4849 121.244 18.532 121.044 18.532H118.819V22.8927C118.819 23.5636 118.96 24.0756 119.243 24.4287C119.525 24.77 119.984 24.9407 120.62 24.9407C120.844 24.9407 121.032 24.9172 121.185 24.8701C121.35 24.823 121.485 24.7995 121.591 24.7995C121.697 24.7877 121.785 24.823 121.856 24.9054C121.926 24.9878 121.962 25.129 121.962 25.3291C121.962 25.4704 121.932 25.5998 121.873 25.7175C121.826 25.8352 121.738 25.9176 121.609 25.9647C121.467 26.0118 121.279 26.053 121.044 26.0883C120.82 26.1354 120.614 26.1589 120.426 26.1589ZM123.407 21.8864C123.23 21.8864 123.083 21.8335 122.965 21.7275C122.848 21.6098 122.789 21.4686 122.789 21.3038C122.789 21.1273 122.848 20.986 122.965 20.8801C123.083 20.7624 123.23 20.7035 123.407 20.7035H127.379C127.544 20.7035 127.685 20.7624 127.803 20.8801C127.92 20.986 127.979 21.1273 127.979 21.3038C127.979 21.4686 127.92 21.6098 127.803 21.7275C127.685 21.8335 127.544 21.8864 127.379 21.8864H123.407ZM133.502 26.1589C132.808 26.1589 132.231 26.0353 131.772 25.7881C131.325 25.5292 130.983 25.1467 130.748 24.6406C130.524 24.1345 130.413 23.5048 130.413 22.7515V18.02C130.413 17.7728 130.472 17.5904 130.589 17.4727C130.719 17.355 130.895 17.2961 131.119 17.2961C131.354 17.2961 131.531 17.355 131.648 17.4727C131.778 17.5904 131.843 17.7728 131.843 18.02V22.7338C131.843 23.4871 131.996 24.0521 132.302 24.4287C132.62 24.7936 133.114 24.976 133.785 24.976C134.514 24.976 135.109 24.7288 135.568 24.2345C136.027 23.7402 136.256 23.0928 136.256 22.2925V18.02C136.256 17.7728 136.315 17.5904 136.433 17.4727C136.562 17.355 136.745 17.2961 136.98 17.2961C137.204 17.2961 137.375 17.355 137.492 17.4727C137.622 17.5904 137.686 17.7728 137.686 18.02V25.3821C137.686 25.8764 137.457 26.1236 136.998 26.1236C136.774 26.1236 136.598 26.0588 136.468 25.9294C136.351 25.7999 136.292 25.6175 136.292 25.3821V23.7755L136.521 24.0227C136.286 24.7171 135.897 25.2467 135.356 25.6116C134.826 25.9765 134.208 26.1589 133.502 26.1589ZM143.805 26.1589C143.134 26.1589 142.569 26.0412 142.11 25.8058C141.663 25.5586 141.327 25.2055 141.104 24.7465C140.88 24.2757 140.768 23.7049 140.768 23.034V18.532H139.585C139.385 18.532 139.232 18.4849 139.126 18.3908C139.02 18.2848 138.967 18.1436 138.967 17.967C138.967 17.7905 139.02 17.6551 139.126 17.561C139.232 17.4668 139.385 17.4197 139.585 17.4197H140.768V15.3894C140.768 15.154 140.833 14.9775 140.962 14.8598C141.092 14.7303 141.268 14.6656 141.492 14.6656C141.716 14.6656 141.886 14.7303 142.004 14.8598C142.133 14.9775 142.198 15.154 142.198 15.3894V17.4197H144.423C144.623 17.4197 144.776 17.4668 144.882 17.561C144.988 17.6551 145.041 17.7905 145.041 17.967C145.041 18.1436 144.988 18.2848 144.882 18.3908C144.776 18.4849 144.623 18.532 144.423 18.532H142.198V22.8927C142.198 23.5636 142.339 24.0756 142.622 24.4287C142.904 24.77 143.363 24.9407 143.999 24.9407C144.223 24.9407 144.411 24.9172 144.564 24.8701C144.729 24.823 144.864 24.7995 144.97 24.7995C145.076 24.7877 145.164 24.823 145.235 24.9054C145.305 24.9878 145.341 25.129 145.341 25.3291C145.341 25.4704 145.311 25.5998 145.252 25.7175C145.205 25.8352 145.117 25.9176 144.988 25.9647C144.846 26.0118 144.658 26.053 144.423 26.0883C144.199 26.1354 143.993 26.1589 143.805 26.1589ZM147.344 26.0883C147.109 26.0883 146.932 26.0235 146.814 25.8941C146.697 25.7528 146.638 25.5586 146.638 25.3115V18.0906C146.638 17.8435 146.697 17.6551 146.814 17.5257C146.932 17.3962 147.109 17.3315 147.344 17.3315C147.568 17.3315 147.744 17.3962 147.874 17.5257C148.003 17.6551 148.068 17.8435 148.068 18.0906V25.3115C148.068 25.5586 148.003 25.7528 147.874 25.8941C147.756 26.0235 147.579 26.0883 147.344 26.0883ZM147.344 15.3541C147.05 15.3541 146.82 15.2776 146.655 15.1246C146.491 14.9598 146.408 14.7421 146.408 14.4714C146.408 14.1889 146.491 13.977 146.655 13.8358C146.82 13.6828 147.05 13.6063 147.344 13.6063C147.65 13.6063 147.879 13.6828 148.032 13.8358C148.197 13.977 148.28 14.1889 148.28 14.4714C148.28 14.7421 148.197 14.9598 148.032 15.1246C147.879 15.2776 147.65 15.3541 147.344 15.3541ZM153.354 26.1589C152.507 26.1589 151.859 25.9 151.412 25.3821C150.965 24.8642 150.741 24.1227 150.741 23.1576V14.1536C150.741 13.9182 150.8 13.7416 150.918 13.6239C151.035 13.4945 151.212 13.4297 151.447 13.4297C151.671 13.4297 151.848 13.4945 151.977 13.6239C152.106 13.7416 152.171 13.9182 152.171 14.1536V23.0516C152.171 23.6872 152.295 24.1639 152.542 24.4817C152.801 24.7877 153.178 24.9407 153.672 24.9407C153.778 24.9407 153.872 24.9348 153.954 24.9231C154.037 24.9113 154.119 24.9054 154.201 24.9054C154.331 24.8936 154.419 24.9231 154.466 24.9937C154.525 25.0643 154.555 25.2055 154.555 25.4174C154.555 25.6292 154.508 25.7881 154.413 25.8941C154.319 26 154.166 26.0706 153.954 26.1059C153.86 26.1177 153.76 26.1295 153.654 26.1412C153.548 26.153 153.448 26.1589 153.354 26.1589ZM156.671 26.0883C156.436 26.0883 156.259 26.0235 156.142 25.8941C156.024 25.7528 155.965 25.5586 155.965 25.3115V18.0906C155.965 17.8435 156.024 17.6551 156.142 17.5257C156.259 17.3962 156.436 17.3315 156.671 17.3315C156.895 17.3315 157.072 17.3962 157.201 17.5257C157.33 17.6551 157.395 17.8435 157.395 18.0906V25.3115C157.395 25.5586 157.33 25.7528 157.201 25.8941C157.083 26.0235 156.907 26.0883 156.671 26.0883ZM156.671 15.3541C156.377 15.3541 156.148 15.2776 155.983 15.1246C155.818 14.9598 155.736 14.7421 155.736 14.4714C155.736 14.1889 155.818 13.977 155.983 13.8358C156.148 13.6828 156.377 13.6063 156.671 13.6063C156.977 13.6063 157.207 13.6828 157.36 13.8358C157.525 13.977 157.607 14.1889 157.607 14.4714C157.607 14.7421 157.525 14.9598 157.36 15.1246C157.207 15.2776 156.977 15.3541 156.671 15.3541ZM161.234 26.1236C161.01 26.1236 160.834 26.0588 160.704 25.9294C160.586 25.7999 160.528 25.6175 160.528 25.3821V18.532H159.398C159.209 18.532 159.056 18.4849 158.939 18.3908C158.833 18.2848 158.78 18.1436 158.78 17.967C158.78 17.7905 158.833 17.6551 158.939 17.561C159.056 17.4668 159.209 17.4197 159.398 17.4197H160.916L160.528 17.7905V17.1196C160.528 16.0015 160.798 15.1481 161.34 14.5596C161.893 13.9712 162.699 13.6298 163.758 13.5357L164.27 13.4827C164.435 13.4709 164.565 13.5004 164.659 13.571C164.765 13.6416 164.829 13.7299 164.853 13.8358C164.888 13.9417 164.894 14.0535 164.871 14.1712C164.847 14.2772 164.794 14.3713 164.712 14.4537C164.629 14.5361 164.529 14.5832 164.412 14.595L164.006 14.6303C163.288 14.6891 162.764 14.9069 162.434 15.2835C162.117 15.6601 161.958 16.2133 161.958 16.9431V17.6846L161.746 17.4197H163.864C164.064 17.4197 164.217 17.4668 164.323 17.561C164.429 17.6551 164.482 17.7905 164.482 17.967C164.482 18.1436 164.429 18.2848 164.323 18.3908C164.217 18.4849 164.064 18.532 163.864 18.532H161.958V25.3821C161.958 25.8764 161.716 26.1236 161.234 26.1236ZM167.734 29.3015C167.557 29.3015 167.416 29.2544 167.31 29.1602C167.204 29.0661 167.139 28.9366 167.116 28.7718C167.104 28.6188 167.134 28.4599 167.204 28.2951L168.422 25.5586V26.1765L165.033 18.3025C164.962 18.1259 164.938 17.9611 164.962 17.8081C164.986 17.6551 165.056 17.5315 165.174 17.4374C165.292 17.3432 165.456 17.2961 165.668 17.2961C165.857 17.2961 166.004 17.3373 166.11 17.4197C166.215 17.5021 166.31 17.6492 166.392 17.8611L169.287 24.9584H168.811L171.741 17.8611C171.836 17.6492 171.936 17.5021 172.042 17.4197C172.148 17.3373 172.301 17.2961 172.501 17.2961C172.689 17.2961 172.83 17.3432 172.924 17.4374C173.03 17.5315 173.089 17.6551 173.101 17.8081C173.124 17.9494 173.101 18.1083 173.03 18.2848L168.511 28.7365C168.416 28.9484 168.311 29.0955 168.193 29.1779C168.087 29.2603 167.934 29.3015 167.734 29.3015Z" fill="white"/>
<path d="M46 22.953L48.9409 19.2769C50.626 17.1705 53.9945 17.9057 54.6487 20.5227V20.5227C55.2995 23.1257 58.6408 23.8717 60.337 21.7926L62.5898 19.0311C64.8071 16.3131 69.0526 16.6307 70.8409 19.6484L72.7992 22.953" stroke="white" stroke-width="1.91423" stroke-linecap="round"/>
</svg>
