
<svg width="83" height="21" viewBox="0 0 83 21" fill="none" xmlns="http://www.w3.org/2000/svg">
<path d="M14.571 13.5711C14.3616 13.3617 14.0949 13.219 13.8045 13.1609L12.0139 12.8028C11.0326 12.6065 10.0139 12.743 9.11887 13.1905L8.88083 13.3095C7.98579 13.757 6.96711 13.8934 5.98585 13.6972L4.53704 13.4074C4.04525 13.3091 3.53684 13.463 3.1822 13.8176M5.99985 5H11.9998L11.2498 5.75V9.62868C11.2498 10.0265 11.4079 10.408 11.6892 10.6893L15.4392 14.4393C16.3841 15.3843 15.7149 17 14.3785 17H3.62117C2.28481 17 1.61556 15.3843 2.56051 14.4393L6.31051 10.6893C6.59182 10.408 6.74985 10.0265 6.74985 9.62868V5.75L5.99985 5Z" stroke="#21CF67" stroke-width="1.2" stroke-linecap="round" stroke-linejoin="round"/>
<path d="M28.7323 9.13231H30.4769V16H28.7323V15.0031H28.4831C28.1785 15.7969 27.5231 16.1938 26.5169 16.1938C26.1754 16.1938 25.8569 16.1385 25.5615 16.0277C25.2662 15.9169 25.0077 15.7462 24.7862 15.5154C24.5646 15.2846 24.3892 14.9985 24.26 14.6569C24.14 14.3062 24.08 13.8954 24.08 13.4246V9.13231H25.8246V13.0646C25.8246 13.5538 25.94 13.9369 26.1708 14.2138C26.4015 14.4815 26.7477 14.6154 27.2092 14.6154C27.7354 14.6154 28.1185 14.4492 28.3585 14.1169C28.6077 13.7754 28.7323 13.3138 28.7323 12.7323V9.13231ZM32.3642 9.13231H34.3996V6.30769H36.1442V9.13231H38.6227V10.7938H36.1442V13.9231C36.1442 14.2 36.2688 14.3385 36.5181 14.3385H38.3734V16H35.4658C35.1519 16 34.8934 15.8985 34.6904 15.6954C34.4965 15.4923 34.3996 15.2338 34.3996 14.92V10.7938H32.3642V9.13231ZM41.1607 14.3385H43.4869V10.7938H41.3269V9.13231H45.2315V14.3385H47.2254V16H41.1607V14.3385ZM45.6607 7.09692C45.6607 7.28154 45.6238 7.45692 45.55 7.62308C45.4854 7.78 45.3931 7.91846 45.2731 8.03846C45.1531 8.14923 45.01 8.24154 44.8438 8.31538C44.6869 8.38 44.5207 8.41231 44.3454 8.41231C44.1607 8.41231 43.99 8.38 43.8331 8.31538C43.6761 8.24154 43.5377 8.14923 43.4177 8.03846C43.2977 7.91846 43.2007 7.78 43.1269 7.62308C43.0623 7.45692 43.03 7.28154 43.03 7.09692C43.03 6.91231 43.0623 6.74154 43.1269 6.58462C43.2007 6.41846 43.2977 6.28 43.4177 6.16923C43.5377 6.04923 43.6761 5.95692 43.8331 5.89231C43.99 5.81846 44.1607 5.78154 44.3454 5.78154C44.5207 5.78154 44.6869 5.81846 44.8438 5.89231C45.01 5.95692 45.1531 6.04923 45.2731 6.16923C45.3931 6.28 45.4854 6.41846 45.55 6.58462C45.6238 6.74154 45.6607 6.91231 45.6607 7.09692ZM49.4727 14.3385H51.8819V7.96923H49.5557V6.30769H53.6265V14.3385H55.8696V16H49.4727V14.3385ZM58.1169 14.3385H60.443V10.7938H58.283V9.13231H62.1876V14.3385H64.1815V16H58.1169V14.3385ZM62.6169 7.09692C62.6169 7.28154 62.58 7.45692 62.5061 7.62308C62.4415 7.78 62.3492 7.91846 62.2292 8.03846C62.1092 8.14923 61.9661 8.24154 61.8 8.31538C61.643 8.38 61.4769 8.41231 61.3015 8.41231C61.1169 8.41231 60.9461 8.38 60.7892 8.31538C60.6323 8.24154 60.4938 8.14923 60.3738 8.03846C60.2538 7.91846 60.1569 7.78 60.083 7.62308C60.0184 7.45692 59.9861 7.28154 59.9861 7.09692C59.9861 6.91231 60.0184 6.74154 60.083 6.58462C60.1569 6.41846 60.2538 6.28 60.3738 6.16923C60.4938 6.04923 60.6323 5.95692 60.7892 5.89231C60.9461 5.81846 61.1169 5.78154 61.3015 5.78154C61.4769 5.78154 61.643 5.81846 61.8 5.89231C61.9661 5.95692 62.1092 6.04923 62.2292 6.16923C62.3492 6.28 62.4415 6.41846 62.5061 6.58462C62.58 6.74154 62.6169 6.91231 62.6169 7.09692ZM66.4149 9.13231H68.3672V7.72C68.3672 7.32308 68.5011 6.99077 68.7688 6.72308C69.0365 6.44615 69.3688 6.30769 69.7657 6.30769H72.5626V7.96923H70.4857C70.2365 7.96923 70.1119 8.10769 70.1119 8.38462V9.13231H72.8119V10.7938H70.1119V16H68.3672V10.7938H66.4149V9.13231ZM79.6007 9.13231H81.3453V17.6892C81.3453 18.0031 81.2438 18.2615 81.0407 18.4646C80.8468 18.6677 80.593 18.7692 80.2792 18.7692H76.1945V17.1077H79.2268C79.4761 17.1077 79.6007 16.9692 79.6007 16.6923V15.0031H79.3515C79.0468 15.7969 78.3915 16.1938 77.3853 16.1938C77.0438 16.1938 76.7253 16.1385 76.4299 16.0277C76.1345 15.9169 75.8761 15.7462 75.6545 15.5154C75.433 15.2846 75.2576 14.9985 75.1284 14.6569C75.0084 14.3062 74.9484 13.8954 74.9484 13.4246V9.13231H76.693V13.0646C76.693 13.5538 76.8084 13.9369 77.0392 14.2138C77.2699 14.4815 77.6161 14.6154 78.0776 14.6154C78.6038 14.6154 78.9868 14.4492 79.2268 14.1169C79.4761 13.7754 79.6007 13.3138 79.6007 12.7323V9.13231Z" fill="#21CF67"/>
</svg>
